<?xml version="1.0" encoding="UTF-8"?>
<svg xmlns="http://www.w3.org/2000/svg" width="720" height="560" viewBox="0 0 720 560" role="img" aria-labelledby="title desc"><title id="title">groundproof reliability diagram</title><desc id="desc">Reliability diagram for 24 items. ECE 0.227458, MCE 0.551333, Brier 0.211357. Small-sample estimate.</desc><style>text{font:14px system-ui,sans-serif;fill:#172033}.title{font-size:22px;font-weight:700}.axis{stroke:#172033}.perfect{stroke:#8a94a6;stroke-dasharray:7 6}.line{fill:none;stroke:#1769aa;stroke-width:3}.point{fill:#28a0b8;stroke:#07546a;stroke-width:2}</style><rect width="100%" height="100%" fill="#fff"/><text x="80" y="38" class="title">groundproof reliability diagram</text><line x1="80" y1="470" x2="480" y2="70" class="perfect"/><line x1="80" y1="470" x2="480" y2="470" class="axis"/><line x1="80" y1="70" x2="80" y2="470" class="axis"/><text x="80" y="494" text-anchor="middle">0.0</text><text x="66" y="474" text-anchor="end">0.0</text><text x="160" y="494" text-anchor="middle">0.2</text><text x="66" y="394" text-anchor="end">0.2</text><text x="240" y="494" text-anchor="middle">0.4</text><text x="66" y="314" text-anchor="end">0.4</text><text x="320" y="494" text-anchor="middle">0.6</text><text x="66" y="234" text-anchor="end">0.6</text><text x="400" y="494" text-anchor="middle">0.8</text><text x="66" y="154" text-anchor="end">0.8</text><text x="480" y="494" text-anchor="middle">1.0</text><text x="66" y="74" text-anchor="end">1.0</text><polyline points="154.8,470 166.7,370 217.3332,470 255.6,370 300.53319999999997,470 338.2,270 370.4,203.3332 417.40000000000003,70 463.40000000000003,270" class="line"/><circle cx="154.8" cy="470" r="6" class="point"><title>n=1; predicted=0.187; observed=0; low-confidence bin</title></circle><circle cx="166.7" cy="370" r="8" class="point"><title>n=4; predicted=0.21675; observed=0.25; low-confidence bin</title></circle><circle cx="217.3332" cy="470" r="7.464101615137754" class="point"><title>n=3; predicted=0.343333; observed=0; low-confidence bin</title></circle><circle cx="255.6" cy="370" r="8" class="point"><title>n=4; predicted=0.439; observed=0.25; low-confidence bin</title></circle><circle cx="300.53319999999997" cy="470" r="7.464101615137754" class="point"><title>n=3; predicted=0.551333; observed=0; low-confidence bin</title></circle><circle cx="338.2" cy="270" r="6.82842712474619" class="point"><title>n=2; predicted=0.6455; observed=0.5; low-confidence bin</title></circle><circle cx="370.4" cy="203.3332" r="7.464101615137754" class="point"><title>n=3; predicted=0.726; observed=0.666667; low-confidence bin</title></circle><circle cx="417.40000000000003" cy="70" r="6.82842712474619" class="point"><title>n=2; predicted=0.8435; observed=1; low-confidence bin</title></circle><circle cx="463.40000000000003" cy="270" r="6.82842712474619" class="point"><title>n=2; predicted=0.9585; observed=0.5; low-confidence bin</title></circle><text x="280" y="525" text-anchor="middle">Mean predicted confidence</text><text x="20" y="270" transform="rotate(-90 20 270)" text-anchor="middle">Empirical grounded rate</text><text x="510" y="100">n = 24</text><text x="510" y="125">ECE = 0.227458</text><text x="510" y="150">MCE = 0.551333</text><text x="510" y="175">Brier = 0.211357</text><text x="80" y="545" font-size="12">Small-sample ECE is noisy; use a full dev set for a meaningful figure.</text></svg>